<?xml version="1.0" encoding="utf-8"?>
<!-- Generator: Adobe Illustrator 19.0.0, SVG Export Plug-In . SVG Version: 6.00 Build 0)  -->
<svg version="1.1" id="Capa_1" xmlns="http://www.w3.org/2000/svg" xmlns:xlink="http://www.w3.org/1999/xlink" x="0px" y="0px"
	 viewBox="0 0 717.2 461.8" style="enable-background:new 0 0 717.2 461.8;" xml:space="preserve">
<style type="text/css">
	.st0{fill:#282828;}
	.st1{fill:#FFFFFF;}
	.st2{fill:#972113;}
	.st3{fill:#154F59;}
	.st4{fill:#586360;}
	.st5{fill:#333333;}
</style>
<path id="XMLID_23_" class="st0" d="M694.9,313H483.3c-12.3,0-22.3-10-22.3-22.3V22.3C461,10,471,0,483.3,0h211.7
	c12.3,0,22.3,10,22.3,22.3v268.4C717.2,303,707.3,313,694.9,313z"/>
<rect id="XMLID_22_" x="485.3" y="26.7" class="st1" width="211.8" height="259.6"/>
<circle id="XMLID_21_" class="st1" cx="589.1" cy="14.2" r="2.8"/>
<rect id="XMLID_12_" x="497.6" y="40.4" class="st2" width="88.7" height="36.7"/>
<rect id="XMLID_11_" x="497.8" y="89.3" class="st3" width="186.8" height="93.4"/>
<rect id="XMLID_10_" x="497.7" y="196.3" class="st4" width="88.5" height="72.5"/>
<rect id="XMLID_8_" x="596.1" y="196.3" class="st4" width="88.5" height="72.5"/>
<path id="XMLID_20_" class="st0" d="M454,242.2H35.5V14.5c0-7.9,6.4-14.3,14.3-14.3h390c7.9,0,14.3,6.4,14.3,14.3V242.2z"/>
<rect id="XMLID_19_" x="53.2" y="19.3" class="st1" width="383" height="203.8"/>
<path id="XMLID_18_" class="st0" d="M478.8,313h-468C4.8,313,0,308.2,0,302.2v-25.1h489.5v25.1C489.5,308.2,484.7,313,478.8,313z"/>
<circle id="XMLID_16_" class="st1" cx="252.6" cy="9.8" r="4.1"/>
<polygon id="XMLID_14_" class="st5" points="454,242.2 35.5,242.2 0,277.1 489.5,277.1 "/>
<rect id="XMLID_4_" x="68" y="28.5" class="st2" width="180.5" height="28.9"/>
<rect id="XMLID_5_" x="68.1" y="67.1" class="st3" width="350.1" height="73.6"/>
<rect id="XMLID_6_" x="68.1" y="151.4" class="st4" width="109.3" height="57.1"/>
<rect id="XMLID_2_" x="188.5" y="151.4" class="st4" width="109.3" height="57.1"/>
<rect id="XMLID_7_" x="308.9" y="151.4" class="st4" width="109.3" height="57.1"/>
<path id="XMLID_31_" class="st0" d="M521.8,461.8H378.3c-6,0-11-4.9-11-11V213.6c0-6,4.9-11,11-11h143.4c6,0,11,4.9,11,11v237.2
	C532.7,456.9,527.8,461.8,521.8,461.8z"/>
<rect id="XMLID_30_" x="384.1" y="225.3" class="st1" width="129.3" height="192.1"/>
<path id="XMLID_29_" class="st1" d="M466.3,217.6h-35c-0.9,0-1.6-0.7-1.6-1.6v-1.4c0-0.9,0.7-1.6,1.6-1.6h35c0.9,0,1.6,0.7,1.6,1.6
	v1.4C467.8,216.9,467.1,217.6,466.3,217.6z"/>
<circle id="XMLID_28_" class="st1" cx="449.9" cy="437.7" r="11.3"/>
<rect id="XMLID_27_" x="392.9" y="232.4" class="st2" width="112.4" height="27.6"/>
<rect id="XMLID_26_" x="393.1" y="269.3" class="st3" width="112.2" height="70.3"/>
<rect id="XMLID_25_" x="394.3" y="348.6" class="st4" width="112.3" height="54.6"/>
</svg>
