<?xml version="1.0" encoding="utf-8"?>
<!-- Generator: Adobe Illustrator 19.0.0, SVG Export Plug-In . SVG Version: 6.00 Build 0)  -->
<svg version="1.1" id="Capa_1" xmlns="http://www.w3.org/2000/svg" xmlns:xlink="http://www.w3.org/1999/xlink" x="0px" y="0px"
	 viewBox="0 0 660 535.3" style="enable-background:new 0 0 660 535.3;" xml:space="preserve">
<style type="text/css">
	.st0{fill:#BFBFBF;}
	.st1{fill:#282828;}
	.st2{fill:#FFFFFF;}
	.st3{fill:#972113;}
	.st4{fill:#154F59;}
	.st5{fill:#FCFCFC;}
	.st6{fill:#5B5B5B;}
	.st7{fill:#2B2F30;}
	.st8{fill:none;stroke:#686868;stroke-miterlimit:10;}
	.st9{fill:#DDDDDD;}
	.st10{fill:#D1D1D1;}
	.st11{fill:#121414;}
	.st12{fill:#282828;stroke:#282828;stroke-linecap:round;stroke-linejoin:round;}
</style>
<polyline id="XMLID_14_" class="st0" points="40,245 40,363 617,363 617,203 "/>
<path id="XMLID_1_" class="st1" d="M660,404.2H0V13.8C0,6.2,6.2,0,13.8,0h632.4c7.6,0,13.8,6.2,13.8,13.8V404.2z"/>
<path id="XMLID_73_" class="st1" d="M0,414v34.2C0,462,12,472,25.8,472h608.3c13.8,0,25.9-10,25.9-23.8V414H0z M330.1,454.4
	c-6.2,0-11.2-5-11.2-11.2c0-6.2,5-11.2,11.2-11.2c6.2,0,11.2,5,11.2,11.2C341.3,449.4,336.3,454.4,330.1,454.4z"/>
<rect id="XMLID_2_" x="26.7" y="29" class="st2" width="606.5" height="346.2"/>
<path id="XMLID_17_" class="st1" d="M419.4,527.2c-0.1,4.4-4.7,8-9.8,8H249.7c-2.5,0-4.8-1.1-6.5-2.6c-1.7-1.4-2.7-3.2-2.7-5.5
	c0-4.3,4.3-7.6,9.3-7.6h4.4c12,0,21.8-8.4,21.8-18.8v-18.4h108.6v18.4c0,10.4,9.7,18.8,21.8,18.8h3.9c2.5,0,4.8,0.7,6.5,2.1
	C418.4,523.2,419.5,525,419.4,527.2z"/>
<path id="XMLID_10_" class="st2" d="M623.1,375.2h-585c-4.9,0-8.9-4-8.9-8.9V39.6c0-4.9,4-8.9,8.9-8.9h585c4.9,0,8.9,4,8.9,8.9
	v326.7C632,371.2,628,375.2,623.1,375.2z"/>
<polygon id="XMLID_6_" class="st3" points="40,38 617,38 617,93.3 336.6,78 40,93.3 "/>
<path id="XMLID_7_" class="st4" d="M135.5,203.4L118,164.6c-3.3-7.3-1.5-15.8,4.4-21.1l31.4-28.6c5.9-5.4,14.6-6.3,21.5-2.4
	l36.9,21.1c6.9,3.9,10.5,11.9,8.9,19.7l-8.6,41.7c-1.6,7.8-8.1,13.7-16,14.6l-42.2,4.7C146.4,215,138.8,210.7,135.5,203.4z"/>
<rect id="XMLID_9_" x="49.7" y="47.3" class="st2" width="125" height="11.4"/>
<rect id="XMLID_11_" x="49.7" y="66" class="st5" width="86.2" height="4.8"/>
<rect id="XMLID_12_" x="568.3" y="58.7" class="st5" width="34.8" height="8.3"/>
<rect id="XMLID_15_" x="524.2" y="58.7" class="st5" width="34.8" height="8.3"/>
<rect id="XMLID_16_" x="479.4" y="58.7" class="st5" width="34.8" height="8.3"/>
<rect id="XMLID_13_" x="330.6" y="124.3" class="st6" width="21.6" height="20"/>
<rect id="XMLID_4_" x="330.6" y="189.7" class="st7" width="17.1" height="9.4"/>
<rect id="XMLID_19_" x="352.2" y="189.7" class="st7" width="17.1" height="9.4"/>
<rect id="XMLID_20_" x="374.9" y="189.7" class="st7" width="17.1" height="9.4"/>
<rect id="XMLID_21_" x="397.6" y="189.7" class="st7" width="17.1" height="9.4"/>
<line id="XMLID_18_" class="st8" x1="359" y1="125.5" x2="558" y2="125.5"/>
<line id="XMLID_23_" class="st8" x1="359" y1="137.5" x2="558" y2="137.5"/>
<line id="XMLID_24_" class="st8" x1="359" y1="146.5" x2="558" y2="146.5"/>
<line id="XMLID_25_" class="st8" x1="329" y1="155.5" x2="558" y2="155.5"/>
<line id="XMLID_26_" class="st8" x1="329" y1="164.5" x2="558" y2="164.5"/>
<line id="XMLID_58_" class="st8" x1="329" y1="172.5" x2="558" y2="172.5"/>
<polygon id="XMLID_22_" class="st9" points="43,270.3 43,368 617,368 617,217.4 43,255.3 "/>
<path id="XMLID_5_" class="st10" d="M579.7,350.8H323.2c-2.9,0-5.2-2.3-5.2-5.2v-84.6c0-2.9,2.3-5.2,5.2-5.2h256.6
	c2.9,0,5.2,2.3,5.2,5.2v84.6C584.9,348.5,582.6,350.8,579.7,350.8z"/>
<rect id="XMLID_29_" x="334.1" y="267.7" class="st2" width="33.5" height="11.9"/>
<rect id="XMLID_34_" x="379.3" y="267.7" class="st2" width="26.2" height="11.9"/>
<rect id="XMLID_35_" x="415.8" y="267.7" class="st2" width="31.7" height="11.9"/>
<rect id="XMLID_36_" x="459" y="267.7" class="st2" width="31.7" height="11.9"/>
<rect id="XMLID_37_" x="499.6" y="267.7" class="st2" width="26.6" height="11.9"/>
<rect id="XMLID_39_" x="536.1" y="267.7" class="st2" width="26.6" height="11.9"/>
<rect id="XMLID_31_" x="334.1" y="307.1" class="st2" width="33.5" height="11.9"/>
<rect id="XMLID_43_" x="379.6" y="307.1" class="st2" width="44.6" height="11.9"/>
<rect id="XMLID_44_" x="436.2" y="307.1" class="st2" width="56.1" height="11.9"/>
<rect id="XMLID_45_" x="504.7" y="307.1" class="st2" width="56.1" height="11.9"/>
<rect id="XMLID_33_" x="334.1" y="287.7" class="st2" width="21.6" height="11.9"/>
<rect id="XMLID_38_" x="365.3" y="287.7" class="st2" width="62.2" height="11.9"/>
<rect id="XMLID_40_" x="439.9" y="287.7" class="st2" width="34.9" height="11.9"/>
<rect id="XMLID_41_" x="487.3" y="287.7" class="st2" width="34.9" height="11.9"/>
<rect id="XMLID_42_" x="536.1" y="287.7" class="st2" width="29.8" height="11.9"/>
<rect id="XMLID_32_" x="334.1" y="327.4" class="st2" width="54" height="11.9"/>
<rect id="XMLID_46_" x="400.5" y="327.4" class="st2" width="31.2" height="11.9"/>
<rect id="XMLID_47_" x="444.8" y="327.4" class="st2" width="20.7" height="11.9"/>
<rect id="XMLID_48_" x="476.9" y="327.4" class="st2" width="34.5" height="11.9"/>
<rect id="XMLID_49_" x="520.8" y="327.4" class="st2" width="23.5" height="11.9"/>
<g id="XMLID_30_">
	<path id="XMLID_54_" class="st1" d="M124.2,291H70.9v-25c0-2.4,1.9-4.3,4.3-4.3h44.6c2.4,0,4.3,1.9,4.3,4.3V291z"/>
	<path id="XMLID_53_" class="st1" d="M121.9,296H73.1c-1.2,0-2.2-1-2.2-2.2v-2.2h53.1v2.2C124.1,295.1,123.1,296,121.9,296z"/>
	<rect id="XMLID_50_" x="77.7" y="267" class="st2" width="38.4" height="19.4"/>
	<path id="XMLID_28_" class="st1" d="M106.9,300.8c0,0.4-0.5,0.8-1,0.8H89.1c-0.3,0-0.5-0.1-0.7-0.2c-0.2-0.1-0.3-0.3-0.3-0.5
		c0-0.4,0.5-0.7,1-0.7h0.5c1.3,0,2.3-0.8,2.3-1.8v-1.7h11.4v1.7c0,1,1,1.8,2.3,1.8h0.4c0.3,0,0.5,0.1,0.7,0.2
		C106.8,300.4,107,300.6,106.9,300.8z"/>
	<ellipse id="XMLID_51_" class="st2" cx="97" cy="293.9" rx="0.5" ry="0.4"/>
</g>
<g id="XMLID_56_">
	<path id="XMLID_109_" class="st7" d="M122.7,336.5h-15.9c-1,0-1.8-0.8-1.8-1.8v-19.1c0-1,0.8-1.8,1.8-1.8h15.9c1,0,1.8,0.8,1.8,1.8
		v19.1C124.5,335.7,123.7,336.5,122.7,336.5z"/>
	<rect id="XMLID_108_" x="109.3" y="318.4" class="st2" width="10.8" height="14"/>
	<ellipse id="XMLID_107_" class="st2" cx="114.9" cy="316.1" rx="0.2" ry="0.2"/>
	<path id="XMLID_106_" class="st7" d="M104.3,331.4H72.4v-16.5c0-0.6,0.5-1.1,1.1-1.1h29.8c0.6,0,1.1,0.5,1.1,1.1V331.4z"/>
	<rect id="XMLID_105_" x="76.7" y="317.6" class="st2" width="23.2" height="10"/>
	<path id="XMLID_104_" class="st7" d="M105.7,336.5H71c-0.7,0-1.3-0.6-1.3-1.3v-1.3H107v1.3C107,336,106.5,336.5,105.7,336.5z"/>
	<ellipse id="XMLID_103_" class="st2" cx="87.5" cy="315.6" rx="0.3" ry="0.3"/>
	<polygon id="XMLID_102_" class="st11" points="104.3,331.4 72.4,331.4 69.7,333.9 107,333.9 	"/>
	<path id="XMLID_101_" class="st7" d="M109.9,347.3H98.1c-0.2,0-0.4-0.2-0.4-0.4V329c0-0.2,0.2-0.4,0.4-0.4h11.8
		c0.2,0,0.4,0.2,0.4,0.4v17.9C110.3,347.1,110.2,347.3,109.9,347.3z"/>
	<rect id="XMLID_100_" x="100.7" y="332.2" class="st2" width="6" height="9.6"/>
	<path id="XMLID_99_" class="st2" d="M105.1,330.3h-2.7c0,0-0.1,0-0.1-0.1V330c0,0,0-0.1,0.1-0.1h2.7c0,0,0.1,0,0.1,0.1L105.1,330.3
		C105.1,330.2,105.1,330.3,105.1,330.3z"/>
	<ellipse id="XMLID_98_" class="st2" cx="103.6" cy="344.4" rx="0.9" ry="0.8"/>
</g>
<g id="XMLID_27_">
	<path id="XMLID_62_" class="st1" d="M244.5,291h-53.3v-25c0-2.4,1.9-4.3,4.3-4.3h44.6c2.4,0,4.3,1.9,4.3,4.3V291z"/>
	<path id="XMLID_61_" class="st1" d="M242.2,296h-48.8c-1.2,0-2.2-1-2.2-2.2v-2.2h53.1v2.2C244.4,295.1,243.4,296,242.2,296z"/>
	<rect id="XMLID_60_" x="198.3" y="267" class="st2" width="38.3" height="18.2"/>
	<path id="XMLID_59_" class="st1" d="M227.2,300.8c0,0.4-0.5,0.8-1,0.8h-16.8c-0.3,0-0.5-0.1-0.7-0.2c-0.2-0.1-0.3-0.3-0.3-0.5
		c0-0.4,0.5-0.7,1-0.7h0.5c1.3,0,2.3-0.8,2.3-1.8v-1.7h11.4v1.7c0,1,1,1.8,2.3,1.8h0.4c0.3,0,0.5,0.1,0.7,0.2
		C227.1,300.4,227.3,300.6,227.2,300.8z"/>
	<ellipse id="XMLID_57_" class="st2" cx="217.3" cy="293.9" rx="0.5" ry="0.4"/>
</g>
<path id="XMLID_131_" class="st12" d="M234.4,326.8c-0.5-2.1-0.8-4-2-5.7l1.9-2.9l-3.4-3.4l-2.7,1.8c-1.7-1.1-3.5-2.1-5.5-2.5
	l-0.9-3.6h-4.9l-0.8,3.6c-2.1,0.4-4,1.4-5.8,2.5l-2.9-1.6l-3.5,3.5l1.7,2.8c-0.6,0.6-1.4,1.6-2,3c-0.6,1.3-0.8,2.4-0.8,3.2
	c-0.4,0.2-0.9,0.5-1.4,0.7c-0.4,0.2-0.8,0.3-1.2,0.5c0,1.6-0.1,3.2-0.1,4.8c0.5,0.1,1,0.2,1.6,0.4c0.4,0.1,0.8,0.2,1.1,0.3
	c0.1,0.8,0.4,2,1.1,3.2c0.6,1.1,1.3,1.9,1.8,2.4c-0.4,1.1-0.8,2.3-1.2,3.4c1.1,1.1,2.3,2.3,3.4,3.4c0.9-0.8,1.9-1.6,2.8-2.4
	c0.7,0.5,1.8,1.2,3.2,1.7c1.1,0.4,2.1,0.6,2.9,0.7c0.3,1,0.7,1.9,1,2.9c1.6-0.2,3.2-0.4,4.8-0.6c0.3-1.1,0.6-2.1,0.9-3.2
	c0.7,0,1.7-0.2,2.9-0.6c1.2-0.5,2.1-1.1,2.7-1.5l2.3,1.5l3.5-3.4c-0.6-0.9-1.2-1.9-1.8-2.8c0.2-0.7,0.4-1.5,0.6-2.3
	c0.2-1.2,0.2-2.2,0.3-3.1c0.8-0.3,2.4-0.5,2.4-0.8v-4.9L234.4,326.8z M219.8,340.8c-5.7,0.5-10.7-4.3-11.1-10
	c-0.4-5.7,4-11.2,9.7-11.4c6.1-0.3,11,5.6,10.7,11.4C228.8,335.7,225,340.4,219.8,340.8z"/>
<path id="XMLID_52_" class="st12" d="M205.9,330.4"/>
</svg>
