<?xml version="1.0" encoding="utf-8"?>
<!-- Generator: Adobe Illustrator 19.0.0, SVG Export Plug-In . SVG Version: 6.00 Build 0)  -->
<svg version="1.1" id="Capa_1" xmlns="http://www.w3.org/2000/svg" xmlns:xlink="http://www.w3.org/1999/xlink" x="0px" y="0px"
	 viewBox="0 0 290 291" style="enable-background:new 0 0 290 291;" xml:space="preserve">
<style type="text/css">
	.st0{fill:#282828;stroke:#282828;stroke-linecap:round;stroke-linejoin:round;}
	.st1{fill:#154F59;stroke:#282828;stroke-miterlimit:10;}
	.st2{fill:#154F59;stroke:#282828;stroke-linecap:round;stroke-linejoin:round;}
</style>
<path id="XMLID_36_" class="st0" d="M268.5,112.3c-3.5-15.6-8.7-30.1-17.5-42.9l12.7-21.9l-26.3-25.7l-20.7,13.3
	c-12.5-8-26.4-10-41.4-13.1L168.3,0h-37.1l-6.2,21.8c-15.8,3.2-30.5,7.5-43.6,16.1L59.9,24.6L33.7,50.3L46.4,71
	c-9.7,14.5-19.4,30.9-22.4,48.8L0,125.5v37.1l25.6,5.5c4.1,18,13.7,34.5,24.7,48.6l-10.7,19.4l27,25.7l22.3-13.1
	c13.2,7.4,28,15.8,43.7,17.9l5.2,24.3h37.1l6.5-27.2c15.5-4,29.8-12.8,42.3-22l17.7,10l26.2-26.7l-11.5-20.3
	c7.9-13,10.8-27.6,13.5-43.1L290,156V119L268.5,112.3z M148.9,248.5c-60.2,0-109.1-48.8-109.1-109.1c0-60.2,48.8-109.1,109.1-109.1
	c60.2,0,109.1,48.8,109.1,109.1C258,199.7,209.1,248.5,148.9,248.5z"/>
<path id="XMLID_31_" class="st1" d="M149.2,34.8C91.6,34.8,45,81.8,45,139.6s46.6,104.8,104.2,104.8s104.2-46.9,104.2-104.8
	S206.7,34.8,149.2,34.8z M77.8,176.2c-11.9-22.8-12.8-46-3-69.6c0.2,0,0.4,0,0.6-0.1c12.8,34.3,25.6,68.6,38.4,103
	C105.1,208.4,84.2,188.6,77.8,176.2z M99.5,101.2c2-0.2,3.9-0.3,5.7-0.5c1.4-0.2,2.9-0.3,4.3-0.6c1.5-0.3,2.3-1.6,2.2-3.2
	c-0.1-1.5-1-2.6-2.4-2.9c-0.8-0.1-1.6-0.1-2.4-0.1c-7.8,0.3-15.5,0.6-23.3,0.9c-0.6,0-1.2-0.1-2.2-0.1c13-18.5,30.2-30.2,52-34.3
	c26.2-4.9,49.6,1.7,70.4,19.1c-1.8,0.3-3.2,0.3-4.5,0.8c-7.7,2.5-11.5,10.1-9.3,18.1c1.3,4.9,4.1,9,6.7,13.2
	c4.6,7.5,7.9,15.5,7.1,24.5c-0.3,3.9-1.1,7.7-2.2,11.5c-2.3,8.1-4.9,16.1-7.4,24.1c-1.3,4.4-2.7,8.7-4,13.1
	c-0.1,0.5-0.3,0.9-0.5,1.4c-0.1,0-0.2,0-0.3,0c-9.7-28.2-19.4-56.5-29.2-84.9c1.9-0.2,3.6-0.3,5.2-0.5c1.2-0.1,2.4-0.2,3.6-0.3
	c2.4-0.3,3.5-1.5,3.4-3.6c-0.1-1.9-1.5-3-3.9-2.8c-4.3,0.2-8.7,0.7-13,0.7c-9.4-0.1-18.8-0.4-28.3-0.6c-0.8,0-1.6-0.1-2.4,0.1
	c-1.5,0.3-2.4,1.7-2.4,3.2c0,1.4,0.9,2.7,2.4,2.9c2.6,0.4,5.3,0.5,8,0.9c0.5,0.1,1.3,0.6,1.5,1.1c4.1,10.7,8.1,21.5,12.1,32.3
	c0.2,0.5,0.1,1.1-0.1,1.6c-4.5,13.3-9.1,26.6-13.6,40c-1.2,3.6-2.5,7.3-4,10.9C119.1,158.4,109.4,129.9,99.5,101.2z M150.5,145.9
	c0.1,0,0.3,0,0.4-0.1c8.4,22.5,16.7,45,25.1,67.5c-17.2,6.2-36.6,5.4-49.6,1.2C134.4,191.7,142.5,168.8,150.5,145.9z M190.7,205.2
	c2.5-7.3,5.1-14.5,7.7-21.8c3.6-10.3,7.2-20.5,10.9-30.8c2.4-6.8,4.9-13.6,7.3-20.4c3.4-9.6,5.1-19.5,4.1-29.7c0-0.4,0-0.8,0-1.5
	c19.4,32.9,10.1,82.7-30.4,105.8C190.5,206.2,190.6,205.7,190.7,205.2z"/>
<path id="XMLID_2_" class="st2" d="M265.3,113.4c-3.4-15.2-8.3-29.3-16.9-41.8l12.4-21.3l-25.6-25.1l-20.2,12.9
	c-12.2-7.8-25.7-9.8-40.3-12.8L168,4h-36.1l-6,21.2c-15.4,3.1-29.7,7.3-42.4,15.7L62.5,28L37,53l12.4,20.1
	c-9.5,14.1-19,30.1-21.9,47.5L4,126.2v36.1l25,5.4c4,17.5,13.3,33.6,24.1,47.3L42.7,234L69,259l21.7-12.8
	c12.9,7.2,27.3,15.2,42.5,17.3l5,23.5h36.1l6.4-26.3c15.1-3.9,29-12.3,41.2-21.4l17.3,9.7l25.5-25.9l-11.2-19.8
	c7.7-12.6,10.2-26.8,12.9-41.9l19.5-5.5v-36.1L265.3,113.4z M149.8,251.7c-61.2,0.5-111.2-49.4-112.7-109.2
	c-1.6-63,51.3-116.4,114.5-114.9c59.9,1.4,109.6,51.7,109.2,112.7C260.4,201,210.7,251.3,149.8,251.7z"/>
</svg>
